{
	"asset":{
		"generator":"Khronos glTF Blender I/O v4.0.44",
		"version":"2.0"
	},
	"scene":0,
	"scenes":[
		{
			"name":"Scene",
			"nodes":[
				8
			]
		}
	],
	"nodes":[
		{
			"mesh":0,
			"name":"Object_8"
		},
		{
			"children":[
				0
			],
			"name":"Cylinder.023_3",
			"rotation":[
				0.70710688829422,
				0,
				0,
				0.7071066498756409
			],
			"scale":[
				0.8430913090705872,
				0.8430914282798767,
				0.8430911898612976
			],
			"translation":[
				0,
				3,
				6
			]
		},
		{
			"mesh":1,
			"name":"Object_6"
		},
		{
			"children":[
				2
			],
			"name":"Cylinder.042_2",
			"rotation":[
				0.70710688829422,
				0,
				0,
				0.7071066498756409
			],
			"scale":[
				0.8430913090705872,
				0.8430914282798767,
				0.8430911898612976
			],
			"translation":[
				0,
				3,
				6
			]
		},
		{
			"mesh":2,
			"name":"Object_4"
		},
		{
			"children":[
				4
			],
			"name":"Cylinder.043_1",
			"rotation":[
				0.70710688829422,
				0,
				0,
				0.7071066498756409
			],
			"scale":[
				0.685046374797821,
				0.6850464344024658,
				0.6850462555885315
			],
			"translation":[
				0,
				3.0183937549591064,
				6
			]
		},
		{
			"children":[
				1,
				3,
				5
			],
			"name":"GLTF_SceneRootNode",
			"rotation":[
				0.70710688829422,
				0,
				0,
				0.7071066498756409
			]
		},
		{
			"children":[
				6
			],
			"name":"root"
		},
		{
			"children":[
				7
			],
			"name":"Sketchfab_model",
			"rotation":[
				-0.70710688829422,
				0,
				0,
				0.7071066498756409
			]
		}
	],
	"materials":[
		{
			"doubleSided":true,
			"name":"glossy_ig",
			"pbrMetallicRoughness":{
				"baseColorFactor":[
					0.497016966342926,
					0.03433811664581299,
					0.40194863080978394,
					1
				],
				"metallicFactor":0,
				"roughnessFactor":0.20000000298023224
			}
		},
		{
			"doubleSided":true,
			"name":"glossy_putih",
			"pbrMetallicRoughness":{
				"baseColorFactor":[
					0.800000011920929,
					0.800000011920929,
					0.800000011920929,
					1
				],
				"metallicFactor":0,
				"roughnessFactor":0.20000000298023224
			}
		}
	],
	"meshes":[
		{
			"name":"Object_2",
			"primitives":[
				{
					"attributes":{
						"POSITION":0,
						"NORMAL":1,
						"TEXCOORD_0":2
					},
					"indices":3,
					"material":0
				}
			]
		},
		{
			"name":"Object_1",
			"primitives":[
				{
					"attributes":{
						"POSITION":4,
						"NORMAL":5,
						"TEXCOORD_0":6
					},
					"indices":7,
					"material":0
				}
			]
		},
		{
			"name":"Object_0",
			"primitives":[
				{
					"attributes":{
						"POSITION":8,
						"NORMAL":9,
						"TEXCOORD_0":10
					},
					"indices":11,
					"material":1
				}
			]
		}
	],
	"accessors":[
		{
			"bufferView":0,
			"componentType":5126,
			"count":7371,
			"max":[
				0.9920442700386047,
				0.22559277713298798,
				0.9922541379928589
			],
			"min":[
				-0.9942095875740051,
				-0.4547262191772461,
				-0.993999719619751
			],
			"type":"VEC3"
		},
		{
			"bufferView":1,
			"componentType":5126,
			"count":7371,
			"type":"VEC3"
		},
		{
			"bufferView":2,
			"componentType":5126,
			"count":7371,
			"type":"VEC2"
		},
		{
			"bufferView":3,
			"componentType":5123,
			"count":35328,
			"type":"SCALAR"
		},
		{
			"bufferView":4,
			"componentType":5126,
			"count":9870,
			"max":[
				1.2390331029891968,
				-0.004461981356143951,
				1.2392430305480957
			],
			"min":[
				-1.2411984205245972,
				-0.22136491537094116,
				-1.2409884929656982
			],
			"type":"VEC3"
		},
		{
			"bufferView":5,
			"componentType":5126,
			"count":9870,
			"type":"VEC3"
		},
		{
			"bufferView":6,
			"componentType":5126,
			"count":9870,
			"type":"VEC2"
		},
		{
			"bufferView":7,
			"componentType":5123,
			"count":55296,
			"type":"SCALAR"
		},
		{
			"bufferView":8,
			"componentType":5126,
			"count":12285,
			"max":[
				0.6713934540748596,
				0.4463537335395813,
				0.7008441686630249
			],
			"min":[
				-0.6952238082885742,
				0.19630067050457,
				-0.6657463312149048
			],
			"type":"VEC3"
		},
		{
			"bufferView":9,
			"componentType":5126,
			"count":12285,
			"type":"VEC3"
		},
		{
			"bufferView":10,
			"componentType":5126,
			"count":12285,
			"type":"VEC2"
		},
		{
			"bufferView":11,
			"componentType":5123,
			"count":50100,
			"type":"SCALAR"
		}
	],
	"bufferViews":[
		{
			"buffer":0,
			"byteLength":88452,
			"byteOffset":0,
			"target":34962
		},
		{
			"buffer":0,
			"byteLength":88452,
			"byteOffset":88452,
			"target":34962
		},
		{
			"buffer":0,
			"byteLength":58968,
			"byteOffset":176904,
			"target":34962
		},
		{
			"buffer":0,
			"byteLength":70656,
			"byteOffset":235872,
			"target":34963
		},
		{
			"buffer":0,
			"byteLength":118440,
			"byteOffset":306528,
			"target":34962
		},
		{
			"buffer":0,
			"byteLength":118440,
			"byteOffset":424968,
			"target":34962
		},
		{
			"buffer":0,
			"byteLength":78960,
			"byteOffset":543408,
			"target":34962
		},
		{
			"buffer":0,
			"byteLength":110592,
			"byteOffset":622368,
			"target":34963
		},
		{
			"buffer":0,
			"byteLength":147420,
			"byteOffset":732960,
			"target":34962
		},
		{
			"buffer":0,
			"byteLength":147420,
			"byteOffset":880380,
			"target":34962
		},
		{
			"buffer":0,
			"byteLength":98280,
			"byteOffset":1027800,
			"target":34962
		},
		{
			"buffer":0,
			"byteLength":100200,
			"byteOffset":1126080,
			"target":34963
		}
	],
	"buffers":[
		{
			"byteLength":1226280,
			"uri":"insta.bin"
		}
	]
}
