{
	"asset":{
		"generator":"Khronos glTF Blender I/O v4.0.44",
		"version":"2.0"
	},
	"scene":0,
	"scenes":[
		{
			"name":"Scene",
			"nodes":[
				0,
				1
			]
		}
	],
	"nodes":[
		{
			"mesh":0,
			"name":"Plane.001",
			"rotation":[
				0.7071068286895752,
				0,
				0,
				0.7071068286895752
			],
			"scale":[
				1.3985872268676758,
				1.3627331256866455,
				1.3627331256866455
			],
			"translation":[
				0,
				0,
				0.13544146716594696
			]
		},
		{
			"mesh":1,
			"name":"Plane",
			"rotation":[
				0.7071068286895752,
				0,
				0,
				0.7071068286895752
			],
			"scale":[
				1.2247031927108765,
				1.2247031927108765,
				1.0535318851470947
			],
			"translation":[
				0,
				-0.07043081521987915,
				0
			]
		}
	],
	"materials":[
		{
			"doubleSided":true,
			"name":"Material.001",
			"pbrMetallicRoughness":{
				"baseColorFactor":[
					1,
					1,
					1,
					1
				],
				"metallicFactor":0,
				"roughnessFactor":0
			}
		},
		{
			"doubleSided":true,
			"name":"Material.002",
			"pbrMetallicRoughness":{
				"baseColorFactor":[
					0.6866853833198547,
					0.0030352696776390076,
					0.0030352696776390076,
					1
				],
				"metallicFactor":0,
				"roughnessFactor":0.5
			}
		}
	],
	"meshes":[
		{
			"name":"Plane.001",
			"primitives":[
				{
					"attributes":{
						"POSITION":0,
						"NORMAL":1
					},
					"indices":2,
					"material":0
				}
			]
		},
		{
			"name":"Plane",
			"primitives":[
				{
					"attributes":{
						"POSITION":3,
						"NORMAL":4
					},
					"indices":5,
					"material":0
				},
				{
					"attributes":{
						"POSITION":6,
						"NORMAL":7
					},
					"indices":8,
					"material":1
				}
			]
		}
	],
	"accessors":[
		{
			"bufferView":0,
			"componentType":5126,
			"count":23,
			"max":[
				1.0600835084915161,
				0,
				1
			],
			"min":[
				-1.0600835084915161,
				-0.26317861676216125,
				-1.071030855178833
			],
			"type":"VEC3"
		},
		{
			"bufferView":1,
			"componentType":5126,
			"count":23,
			"type":"VEC3"
		},
		{
			"bufferView":2,
			"componentType":5123,
			"count":39,
			"type":"SCALAR"
		},
		{
			"bufferView":3,
			"componentType":5126,
			"count":48,
			"max":[
				1,
				6.258414897430953e-10,
				1
			],
			"min":[
				-1,
				-0.03296887129545212,
				-1
			],
			"type":"VEC3"
		},
		{
			"bufferView":4,
			"componentType":5126,
			"count":48,
			"type":"VEC3"
		},
		{
			"bufferView":5,
			"componentType":5123,
			"count":120,
			"type":"SCALAR"
		},
		{
			"bufferView":6,
			"componentType":5126,
			"count":24,
			"max":[
				0.9133586287498474,
				6.258414897430953e-10,
				0.4661737084388733
			],
			"min":[
				-0.9280356168746948,
				-0.03296887129545212,
				-0.9093793630599976
			],
			"type":"VEC3"
		},
		{
			"bufferView":7,
			"componentType":5126,
			"count":24,
			"type":"VEC3"
		},
		{
			"bufferView":8,
			"componentType":5123,
			"count":60,
			"type":"SCALAR"
		}
	],
	"bufferViews":[
		{
			"buffer":0,
			"byteLength":276,
			"byteOffset":0,
			"target":34962
		},
		{
			"buffer":0,
			"byteLength":276,
			"byteOffset":276,
			"target":34962
		},
		{
			"buffer":0,
			"byteLength":78,
			"byteOffset":552,
			"target":34963
		},
		{
			"buffer":0,
			"byteLength":576,
			"byteOffset":632,
			"target":34962
		},
		{
			"buffer":0,
			"byteLength":576,
			"byteOffset":1208,
			"target":34962
		},
		{
			"buffer":0,
			"byteLength":240,
			"byteOffset":1784,
			"target":34963
		},
		{
			"buffer":0,
			"byteLength":288,
			"byteOffset":2024,
			"target":34962
		},
		{
			"buffer":0,
			"byteLength":288,
			"byteOffset":2312,
			"target":34962
		},
		{
			"buffer":0,
			"byteLength":120,
			"byteOffset":2600,
			"target":34963
		}
	],
	"buffers":[
		{
			"byteLength":2720,
			"uri":"gmail3.bin"
		}
	]
}
