{
  "accessors": [
    {
      "bufferView": 0,
      "componentType": 5126,
      "count": 65535,
      "max": [
        0.4987560510635376,
        0.384757936000824,
        0.38654229044914246
      ],
      "min": [
        0.3164426386356354,
        -0.36612847447395325,
        -0.3885232210159302
      ],
      "type": "VEC3"
    },
    {
      "bufferView": 0,
      "byteOffset": 786420,
      "componentType": 5126,
      "count": 65535,
      "max": [
        0.9999990463256836,
        0.9998307228088379,
        0.9999874830245972
      ],
      "min": [
        -0.9999758005142212,
        -0.9999122619628906,
        -0.9999874830245972
      ],
      "type": "VEC3"
    },
    {
      "bufferView": 1,
      "componentType": 5126,
      "count": 65535,
      "max": [
        0.8705882430076599,
        0.6235294342041016,
        0.6549019813537598,
        1.0
      ],
      "min": [
        0.13333334028720856,
        0.24705882370471954,
        0.1764705926179886,
        1.0
      ],
      "type": "VEC4"
    },
    {
      "bufferView": 0,
      "byteOffset": 1572840,
      "componentType": 5126,
      "count": 65535,
      "max": [
        0.3184817433357239,
        0.4065050482749939,
        0.4506363868713379
      ],
      "min": [
        0.21202071011066437,
        -0.3899271488189697,
        -0.4504842162132263
      ],
      "type": "VEC3"
    },
    {
      "bufferView": 0,
      "byteOffset": 2359260,
      "componentType": 5126,
      "count": 65535,
      "max": [
        0.999983549118042,
        0.9999990463256836,
        0.9999874830245972
      ],
      "min": [
        -0.9998154044151306,
        -0.999995231628418,
        -0.9999874830245972
      ],
      "type": "VEC3"
    },
    {
      "bufferView": 1,
      "byteOffset": 1048560,
      "componentType": 5126,
      "count": 65535,
      "max": [
        0.8745098114013672,
        0.6274510025978088,
        0.6549019813537598,
        1.0
      ],
      "min": [
        0.12941177189350128,
        0.250980406999588,
        0.1764705926179886,
        1.0
      ],
      "type": "VEC4"
    },
    {
      "bufferView": 0,
      "byteOffset": 3145680,
      "componentType": 5126,
      "count": 65535,
      "max": [
        0.21405933797359467,
        0.49299880862236023,
        0.45064154267311096
      ],
      "min": [
        0.0994190201163292,
        -0.4925903379917145,
        -0.4505757987499237
      ],
      "type": "VEC3"
    },
    {
      "bufferView": 0,
      "byteOffset": 3932100,
      "componentType": 5126,
      "count": 65535,
      "max": [
        0.9999756813049316,
        0.9999874830245972,
        0.9999914169311523
      ],
      "min": [
        -0.9999603033065796,
        -0.9999198317527771,
        -0.9999990463256836
      ],
      "type": "VEC3"
    },
    {
      "bufferView": 1,
      "byteOffset": 2097120,
      "componentType": 5126,
      "count": 65535,
      "max": [
        0.8784313797950745,
        0.6274510025978088,
        0.6549019813537598,
        1.0
      ],
      "min": [
        0.12941177189350128,
        0.24705882370471954,
        0.1764705926179886,
        1.0
      ],
      "type": "VEC4"
    },
    {
      "bufferView": 0,
      "byteOffset": 4718520,
      "componentType": 5126,
      "count": 65535,
      "max": [
        0.10145292431116104,
        0.49291887879371643,
        0.4504980444908142
      ],
      "min": [
        -0.22614407539367676,
        -0.4926605224609375,
        -0.45063701272010803
      ],
      "type": "VEC3"
    },
    {
      "bufferView": 0,
      "byteOffset": 5504940,
      "componentType": 5126,
      "count": 65535,
      "max": [
        0.9999758005142212,
        0.9999990463256836,
        0.999995231628418
      ],
      "min": [
        -0.9999758005142212,
        -0.999995231628418,
        -0.9999874830245972
      ],
      "type": "VEC3"
    },
    {
      "bufferView": 1,
      "byteOffset": 3145680,
      "componentType": 5126,
      "count": 65535,
      "max": [
        0.8784313797950745,
        0.6274510025978088,
        0.6666666865348816,
        1.0
      ],
      "min": [
        0.13333334028720856,
        0.239215686917305,
        0.1725490242242813,
        1.0
      ],
      "type": "VEC4"
    },
    {
      "bufferView": 0,
      "byteOffset": 6291360,
      "componentType": 5126,
      "count": 65535,
      "max": [
        -0.22409771382808685,
        0.4255284368991852,
        0.4401710033416748
      ],
      "min": [
        -0.4799630641937256,
        -0.4091723561286926,
        -0.44019222259521484
      ],
      "type": "VEC3"
    },
    {
      "bufferView": 0,
      "byteOffset": 7077780,
      "componentType": 5126,
      "count": 65535,
      "max": [
        0.9999039769172668,
        0.999983549118042,
        0.9999914169311523
      ],
      "min": [
        -0.999995231628418,
        -0.9999359846115112,
        -0.9999758005142212
      ],
      "type": "VEC3"
    },
    {
      "bufferView": 1,
      "byteOffset": 4194240,
      "componentType": 5126,
      "count": 65535,
      "max": [
        0.8745098114013672,
        0.6274510025978088,
        0.6549019813537598,
        1.0
      ],
      "min": [
        0.13333334028720856,
        0.24705882370471954,
        0.1764705926179886,
        1.0
      ],
      "type": "VEC4"
    },
    {
      "bufferView": 0,
      "byteOffset": 7864200,
      "componentType": 5126,
      "count": 65535,
      "max": [
        -0.15858063101768494,
        0.42456573247909546,
        0.44930875301361084
      ],
      "min": [
        -0.49980607628822327,
        -0.41069266200065613,
        -0.44967925548553467
      ],
      "type": "VEC3"
    },
    {
      "bufferView": 0,
      "byteOffset": 8650620,
      "componentType": 5126,
      "count": 65535,
      "max": [
        0.9999361634254456,
        0.9999756813049316,
        0.999995231628418
      ],
      "min": [
        -0.9999990463256836,
        -0.9999990463256836,
        -0.9999560117721558
      ],
      "type": "VEC3"
    },
    {
      "bufferView": 1,
      "byteOffset": 5242800,
      "componentType": 5126,
      "count": 65535,
      "max": [
        0.8784313797950745,
        0.6274510025978088,
        0.658823549747467,
        1.0
      ],
      "min": [
        0.13333334028720856,
        0.24705882370471954,
        0.1764705926179886,
        1.0
      ],
      "type": "VEC4"
    },
    {
      "bufferView": 0,
      "byteOffset": 9437040,
      "componentType": 5126,
      "count": 65535,
      "max": [
        -0.04187442734837532,
        0.48339417576789856,
        0.45038196444511414
      ],
      "min": [
        -0.16061630845069885,
        -0.466709703207016,
        -0.4499579668045044
      ],
      "type": "VEC3"
    },
    {
      "bufferView": 0,
      "byteOffset": 10223460,
      "componentType": 5126,
      "count": 65535,
      "max": [
        0.999995231628418,
        0.999983549118042,
        0.9999756813049316
      ],
      "min": [
        -0.9999126195907593,
        -0.999995231628418,
        -0.9999639987945557
      ],
      "type": "VEC3"
    },
    {
      "bufferView": 1,
      "byteOffset": 6291360,
      "componentType": 5126,
      "count": 65535,
      "max": [
        0.8784313797950745,
        0.6274510025978088,
        0.6627451181411743,
        1.0
      ],
      "min": [
        0.12941177189350128,
        0.239215686917305,
        0.1764705926179886,
        1.0
      ],
      "type": "VEC4"
    },
    {
      "bufferView": 0,
      "byteOffset": 11009880,
      "componentType": 5126,
      "count": 41074,
      "max": [
        0.01955399662256241,
        0.4757494032382965,
        0.4506648778915405
      ],
      "min": [
        -0.043908827006816864,
        -0.45883801579475403,
        -0.4506712853908539
      ],
      "type": "VEC3"
    },
    {
      "bufferView": 0,
      "byteOffset": 11502768,
      "componentType": 5126,
      "count": 41074,
      "max": [
        0.9999406337738037,
        0.9999874830245972,
        0.9999914169311523
      ],
      "min": [
        -0.9999638795852661,
        -0.9999759197235107,
        -0.9999874830245972
      ],
      "type": "VEC3"
    },
    {
      "bufferView": 1,
      "byteOffset": 7339920,
      "componentType": 5126,
      "count": 41074,
      "max": [
        0.8745098114013672,
        0.6274510025978088,
        0.658823549747467,
        1.0
      ],
      "min": [
        0.12941177189350128,
        0.24705882370471954,
        0.1725490242242813,
        1.0
      ],
      "type": "VEC4"
    }
  ],
  "asset": {
    "extras": {
      "author": "𝔼ℕ𝔼𝔸 𝕃𝔼 𝔽𝕆ℕ𝕊 (https://sketchfab.com/enealefons)",
      "license": "CC-BY-4.0 (http://creativecommons.org/licenses/by/4.0/)",
      "source": "https://sketchfab.com/3d-models/uxrzone-free-pointcloud-fractal-sphere-de18044c65e54e12892aaaa5de9ec5f6",
      "title": "UXRZONE free pointcloud fractal Sphere"
    },
    "generator": "Sketchfab-15.12.0",
    "version": "2.0"
  },
  "bufferViews": [
    {
      "buffer": 0,
      "byteLength": 11995656,
      "byteStride": 12,
      "name": "floatBufferViews",
      "target": 34962
    },
    {
      "buffer": 0,
      "byteLength": 7997104,
      "byteOffset": 11995656,
      "byteStride": 16,
      "name": "floatBufferViews",
      "target": 34962
    }
  ],
  "buffers": [
    {
      "byteLength": 19992760,
      "uri": "scene.bin"
    }
  ],
  "materials": [
    {
      "alphaMode": "BLEND",
      "doubleSided": true,
      "name": "Scene_-_Root",
      "pbrMetallicRoughness": {
        "baseColorFactor": [
          1.0,
          1.0,
          1.0,
          0.3154295327376236
        ],
        "metallicFactor": 0.0,
        "roughnessFactor": 0.6
      }
    }
  ],
  "meshes": [
    {
      "name": "Object_0",
      "primitives": [
        {
          "attributes": {
            "COLOR_0": 2,
            "NORMAL": 1,
            "POSITION": 0
          },
          "material": 0,
          "mode": 0
        }
      ]
    },
    {
      "name": "Object_1",
      "primitives": [
        {
          "attributes": {
            "COLOR_0": 5,
            "NORMAL": 4,
            "POSITION": 3
          },
          "material": 0,
          "mode": 0
        }
      ]
    },
    {
      "name": "Object_2",
      "primitives": [
        {
          "attributes": {
            "COLOR_0": 8,
            "NORMAL": 7,
            "POSITION": 6
          },
          "material": 0,
          "mode": 0
        }
      ]
    },
    {
      "name": "Object_3",
      "primitives": [
        {
          "attributes": {
            "COLOR_0": 11,
            "NORMAL": 10,
            "POSITION": 9
          },
          "material": 0,
          "mode": 0
        }
      ]
    },
    {
      "name": "Object_4",
      "primitives": [
        {
          "attributes": {
            "COLOR_0": 14,
            "NORMAL": 13,
            "POSITION": 12
          },
          "material": 0,
          "mode": 0
        }
      ]
    },
    {
      "name": "Object_5",
      "primitives": [
        {
          "attributes": {
            "COLOR_0": 17,
            "NORMAL": 16,
            "POSITION": 15
          },
          "material": 0,
          "mode": 0
        }
      ]
    },
    {
      "name": "Object_6",
      "primitives": [
        {
          "attributes": {
            "COLOR_0": 20,
            "NORMAL": 19,
            "POSITION": 18
          },
          "material": 0,
          "mode": 0
        }
      ]
    },
    {
      "name": "Object_7",
      "primitives": [
        {
          "attributes": {
            "COLOR_0": 23,
            "NORMAL": 22,
            "POSITION": 21
          },
          "material": 0,
          "mode": 0
        }
      ]
    }
  ],
  "nodes": [
    {
      "children": [
        1
      ],
      "name": "Sketchfab_model"
    },
    {
      "children": [
        2,
        3,
        4,
        5,
        6,
        7,
        8,
        9
      ],
      "name": "Geode"
    },
    {
      "mesh": 0,
      "name": "Object_2"
    },
    {
      "mesh": 1,
      "name": "Object_3"
    },
    {
      "mesh": 2,
      "name": "Object_4"
    },
    {
      "mesh": 3,
      "name": "Object_5"
    },
    {
      "mesh": 4,
      "name": "Object_6"
    },
    {
      "mesh": 5,
      "name": "Object_7"
    },
    {
      "mesh": 6,
      "name": "Object_8"
    },
    {
      "mesh": 7,
      "name": "Object_9"
    }
  ],
  "scene": 0,
  "scenes": [
    {
      "name": "Sketchfab_Scene",
      "nodes": [
        0
      ]
    }
  ]
}
